<?xml version="1.0" encoding="UTF-8"?>
<svg width="136px" height="40px" viewBox="0 0 136 40" version="1.1" xmlns="http://www.w3.org/2000/svg" xmlns:xlink="http://www.w3.org/1999/xlink">
    <title>appStoreicon</title>
    <defs>
        <linearGradient x1="49.9986096%" y1="100.269324%" x2="49.9986096%" y2="10.1317862%" id="linearGradient-1">
            <stop stop-color="#1A1A1A" stop-opacity="0.1" offset="0%"></stop>
            <stop stop-color="#212121" stop-opacity="0.1506" offset="12.35%"></stop>
            <stop stop-color="#353535" stop-opacity="0.2265" offset="30.85%"></stop>
            <stop stop-color="#575757" stop-opacity="0.3181" offset="53.21%"></stop>
            <stop stop-color="#858585" stop-opacity="0.4212" offset="78.34%"></stop>
            <stop stop-color="#B3B3B3" stop-opacity="0.51" offset="100%"></stop>
        </linearGradient>
    </defs>
    <g id="Web" stroke="none" stroke-width="1" fill="none" fill-rule="evenodd">
        <g id="entercode.js" transform="translate(-38.000000, -692.000000)" fill-rule="nonzero">
            <g id="AppStore-Icons-Copy" transform="translate(38.000000, 692.000000)">
                <g id="appStoreicon" transform="translate(0.238095, 0.000000)">
                    <path d="M134.032,35.268 C134.032,37.384 132.318,39.098 130.198,39.098 L4.729,39.098 C2.61,39.098 0.89,37.384 0.89,35.268 L0.89,4.725 C0.89,2.61 2.61,0.89 4.729,0.89 L130.197,0.89 C132.318,0.89 134.032,2.61 134.032,4.725 L134.032,35.268 L134.032,35.268 Z" id="Path" fill="#FFFFFF"></path>
                    <path d="M130.198,39.989 L4.729,39.989 C2.122,39.989 0,37.872 0,35.268 L0,4.726 C0,2.12 2.122,0 4.729,0 L130.197,0 C132.801,0 134.926001,2.12 134.926001,4.726 L134.926001,35.268 C134.928,37.872 132.803,39.989 130.198,39.989 L130.198,39.989 Z" id="Path" fill="#A6A6A6"></path>
                    <path d="M134.032,35.268 C134.032,37.384 132.318,39.098 130.198,39.098 L4.729,39.098 C2.61,39.098 0.89,37.384 0.89,35.268 L0.89,4.725 C0.89,2.61 2.61,0.89 4.729,0.89 L130.197,0.89 C132.318,0.89 134.032,2.61 134.032,4.725 L134.032,35.268 L134.032,35.268 Z" id="Path" fill="#000000"></path>
                    <path d="M30.128,19.784 C30.099,16.561 32.767,14.993 32.889,14.92 C31.378,12.717 29.036,12.416 28.213,12.392 C26.246,12.185 24.338,13.569 23.336,13.569 C22.314,13.569 20.771,12.412 19.108,12.446 C16.968,12.479 14.966,13.718 13.868,15.642 C11.602,19.565 13.292,25.33 15.463,28.501 C16.549,30.055 17.818,31.788 19.479,31.727 C21.104,31.662 21.711,30.692 23.672,30.692 C25.615,30.692 26.185,31.727 27.879,31.688 C29.623,31.662 30.721,30.128 31.769,28.561 C33.024,26.783 33.528,25.028 33.548,24.938 C33.508,24.924 30.162,23.646 30.128,19.784 Z" id="Path" fill="#FFFFFF"></path>
                    <path d="M26.928,10.306 C27.802,9.213 28.4,7.726 28.234,6.217 C26.969,6.273 25.387,7.092 24.476,8.161 C23.67,9.103 22.95,10.647 23.136,12.099 C24.557,12.205 26.016,11.382 26.928,10.306 Z" id="Path" fill="#FFFFFF"></path>
                    <path d="M130.198,0 L62.993,0 L89.316,39.989 L130.198,39.989 C132.802,39.989 134.927,37.872 134.927,35.265 L134.927,4.726 C134.928,2.12 132.803,0 130.198,0 Z" id="Path" fill="url(#linearGradient-1)"></path>
                    <g id="Group" transform="translate(42.430000, 18.000000)" fill="#FFFFFF">
                        <path d="M11.235,13.504 L8.964,13.504 L7.72,9.595 L3.396,9.595 L2.211,13.504 L7.10542736e-15,13.504 L4.285,0.196 L6.931,0.196 L11.235,13.504 Z M7.345,7.955 L6.22,4.48 C6.101,4.125 5.877,3.289 5.549,1.973 L5.509,1.973 C5.377,2.539 5.166,3.375 4.877,4.48 L3.771,7.955 L7.345,7.955 L7.345,7.955 Z" id="Shape"></path>
                        <path d="M22.233,8.588 C22.233,10.22 21.79,11.51 20.903,12.457 C20.109,13.3 19.122,13.721 17.945,13.721 C16.674,13.721 15.76,13.268 15.205,12.36 L15.205,17.395 L13.073,17.395 L13.073,7.062 C13.073,6.037 13.046,4.986 12.994,3.908 L14.869,3.908 L14.988,5.429 L15.028,5.429 C15.739,4.283 16.818,3.709 18.266,3.709 C19.398,3.709 20.343,4.156 21.099,5.051 C21.854,5.949 22.233,7.127 22.233,8.588 Z M20.061,8.666 C20.061,7.732 19.851,6.962 19.429,6.355 C18.968,5.724 18.349,5.408 17.573,5.408 C17.047,5.408 16.569,5.584 16.142,5.931 C15.714,6.281 15.434,6.738 15.303,7.304 C15.237,7.568 15.204,7.783 15.204,7.952 L15.204,9.554 C15.204,10.25 15.418,10.839 15.846,11.322 C16.274,11.801 16.83,12.043 17.514,12.043 C18.317,12.043 18.942,11.732 19.389,11.115 C19.837,10.496 20.061,9.68 20.061,8.666 Z" id="Shape"></path>
                        <path d="M33.27,8.588 C33.27,10.22 32.827,11.51 31.94,12.457 C31.145,13.3 30.159,13.721 28.981,13.721 C27.71,13.721 26.796,13.268 26.241,12.36 L26.241,17.395 L24.109,17.395 L24.109,7.062 C24.109,6.037 24.082,4.986 24.03,3.908 L25.905,3.908 L26.024,5.429 L26.064,5.429 C26.774,4.283 27.853,3.709 29.302,3.709 C30.433,3.709 31.378,4.156 32.136,5.051 C32.89,5.949 33.27,7.127 33.27,8.588 Z M31.097,8.666 C31.097,7.732 30.886,6.962 30.464,6.355 C30.003,5.724 29.386,5.408 28.61,5.408 C28.084,5.408 27.606,5.584 27.177,5.931 C26.749,6.281 26.47,6.738 26.339,7.304 C26.274,7.568 26.238,7.783 26.238,7.952 L26.238,9.554 C26.238,10.25 26.453,10.839 26.88,11.322 C27.308,11.801 27.863,12.043 28.55,12.043 C29.354,12.043 29.979,11.732 30.425,11.115 C30.873,10.496 31.097,9.68 31.097,8.666 Z" id="Shape"></path>
                        <path d="M45.61,9.771 C45.61,10.904 45.214,11.825 44.427,12.536 C43.561,13.312 42.352,13.701 40.802,13.701 C39.369,13.701 38.222,13.425 37.356,12.872 L37.849,11.095 C38.784,11.649 39.811,11.925 40.929,11.925 C41.733,11.925 42.358,11.743 42.804,11.382 C43.251,11.02 43.477,10.536 43.477,9.932 C43.477,9.391 43.29,8.938 42.923,8.569 C42.554,8.202 41.944,7.858 41.087,7.544 C38.757,6.675 37.591,5.403 37.591,3.732 C37.591,2.64 38.003,1.747 38.824,1.047 C39.646,0.349 40.736,0 42.093,0 C43.304,0 44.313,0.211 45.114,0.632 L44.579,2.37 C43.825,1.962 42.975,1.758 42.022,1.758 C41.27,1.758 40.679,1.943 40.257,2.311 C39.903,2.64 39.722,3.041 39.722,3.517 C39.722,4.042 39.927,4.478 40.335,4.82 C40.689,5.135 41.335,5.478 42.27,5.846 C43.416,6.308 44.257,6.846 44.796,7.464 C45.34,8.081 45.61,8.852 45.61,9.771 Z" id="Path"></path>
                        <path d="M52.677,5.508 L50.326,5.508 L50.326,10.167 C50.326,11.352 50.74,11.943 51.57,11.943 C51.951,11.943 52.267,11.911 52.517,11.843 L52.576,13.462 C52.156,13.619 51.603,13.698 50.919,13.698 C50.076,13.698 49.419,13.44 48.943,12.927 C48.469,12.413 48.232,11.552 48.232,10.34 L48.232,5.503 L46.833,5.503 L46.833,3.903 L48.232,3.903 L48.232,2.146 L50.326,1.514 L50.326,3.903 L52.677,3.903 L52.677,5.508 Z" id="Path"></path>
                        <path d="M63.259,8.627 C63.259,10.102 62.837,11.313 61.994,12.26 C61.113,13.235 59.941,13.721 58.48,13.721 C57.07,13.721 55.949,13.254 55.113,12.321 C54.277,11.386 53.859,10.209 53.859,8.788 C53.859,7.301 54.292,6.083 55.152,5.136 C56.014,4.189 57.176,3.714 58.637,3.714 C60.045,3.714 61.176,4.183 62.033,5.116 C62.852,6.021 63.259,7.191 63.259,8.627 Z M61.049,8.676 C61.049,7.797 60.86,7.043 60.479,6.412 C60.032,5.65 59.391,5.269 58.563,5.269 C57.709,5.269 57.053,5.65 56.608,6.412 C56.225,7.043 56.036,7.81 56.036,8.716 C56.036,9.596 56.225,10.352 56.608,10.981 C57.069,11.744 57.712,12.125 58.546,12.125 C59.36,12.125 59.999,11.735 60.462,10.963 C60.852,10.316 61.049,9.557 61.049,8.676 Z" id="Shape"></path>
                        <path d="M70.192,5.783 C69.981,5.744 69.755,5.724 69.52,5.724 C68.77,5.724 68.19,6.005 67.782,6.574 C67.428,7.074 67.25,7.706 67.25,8.469 L67.25,13.504 L65.118,13.504 L65.118,6.93 C65.118,5.826 65.097,4.817 65.056,3.909 L66.912,3.909 L66.99,5.745 L67.05,5.745 C67.276,5.114 67.63,4.605 68.115,4.224 C68.591,3.88 69.103,3.709 69.656,3.709 C69.853,3.709 70.031,3.724 70.189,3.748 L70.192,5.783 L70.192,5.783 Z" id="Path"></path>
                        <path d="M79.727,8.252 C79.727,8.634 79.702,8.956 79.649,9.219 L73.253,9.219 C73.276,10.167 73.587,10.893 74.181,11.393 C74.72,11.839 75.417,12.063 76.273,12.063 C77.22,12.063 78.084,11.914 78.861,11.61 L79.195,13.089 C78.287,13.485 77.215,13.682 75.978,13.682 C74.49,13.682 73.322,13.244 72.472,12.37 C71.624,11.495 71.199,10.318 71.199,8.846 C71.199,7.401 71.594,6.196 72.385,5.235 C73.213,4.209 74.332,3.696 75.74,3.696 C77.123,3.696 78.17,4.209 78.881,5.235 C79.444,6.047 79.727,7.055 79.727,8.252 Z M77.694,7.699 C77.709,7.066 77.569,6.521 77.28,6.06 C76.911,5.465 76.343,5.169 75.582,5.169 C74.885,5.169 74.317,5.458 73.885,6.038 C73.531,6.499 73.32,7.054 73.254,7.696 L77.694,7.699 L77.694,7.699 Z" id="Shape"></path>
                    </g>
                    <g id="Group" transform="translate(43.224000, 6.553000)" fill="#FFFFFF">
                        <path d="M5.523,6.88 L4.406,6.88 L3.795,4.959 L1.67,4.959 L1.087,6.88 L0,6.88 L2.106,0.339 L3.406,0.339 L5.523,6.88 Z M3.611,4.153 L3.058,2.445 C3,2.27 2.893,1.863 2.728,1.213 L2.708,1.213 C2.64,1.494 2.543,1.902 2.397,2.445 L1.854,4.153 L3.611,4.153 Z" id="Shape"></path>
                        <path d="M10.789,2.164 L9.003,6.88 L7.984,6.88 L6.256,2.164 L7.382,2.164 L8.188,4.658 C8.324,5.075 8.44,5.473 8.527,5.851 L8.556,5.851 C8.634,5.512 8.75,5.114 8.895,4.658 L9.691,2.164 L10.789,2.164 Z" id="Path"></path>
                        <path d="M14.591,6.88 L14.513,6.337 L14.484,6.337 C14.164,6.774 13.698,6.987 13.106,6.987 C12.262,6.987 11.66,6.395 11.66,5.599 C11.66,4.435 12.669,3.833 14.416,3.833 L14.416,3.746 C14.416,3.125 14.086,2.814 13.436,2.814 C12.97,2.814 12.562,2.931 12.204,3.164 L11.991,2.475 C12.428,2.203 12.971,2.067 13.612,2.067 C14.844,2.067 15.466,2.717 15.466,4.018 L15.466,5.755 C15.466,6.231 15.486,6.6 15.534,6.881 L14.591,6.88 L14.591,6.88 Z M14.445,4.531 C13.28,4.531 12.698,4.813 12.698,5.482 C12.698,5.977 12.999,6.219 13.416,6.219 C13.95,6.219 14.445,5.812 14.445,5.259 L14.445,4.531 Z" id="Shape"></path>
                        <path d="M17.8,1.387 C17.451,1.387 17.179,1.115 17.179,0.756 C17.179,0.397 17.46,0.135 17.82,0.135 C18.179,0.135 18.47,0.397 18.46,0.756 C18.46,1.135 18.189,1.387 17.8,1.387 Z M18.344,6.88 L17.296,6.88 L17.296,2.164 L18.344,2.164 L18.344,6.88 L18.344,6.88 Z" id="Shape"></path>
                        <polygon id="Path" points="21.254 6.88 20.206 6.88 20.206 -1.77635684e-15 21.254 -1.77635684e-15"></polygon>
                        <path d="M25.708,6.88 L25.63,6.337 L25.602,6.337 C25.282,6.774 24.816,6.987 24.224,6.987 C23.38,6.987 22.778,6.395 22.778,5.599 C22.778,4.435 23.787,3.833 25.534,3.833 L25.534,3.746 C25.534,3.125 25.204,2.814 24.554,2.814 C24.088,2.814 23.68,2.931 23.322,3.164 L23.108,2.474 C23.545,2.202 24.088,2.066 24.729,2.066 C25.96,2.066 26.583,2.716 26.583,4.017 L26.583,5.754 C26.583,6.23 26.604,6.599 26.649,6.88 L25.708,6.88 L25.708,6.88 Z M25.562,4.531 C24.397,4.531 23.815,4.813 23.815,5.482 C23.815,5.977 24.116,6.219 24.533,6.219 C25.067,6.219 25.562,5.812 25.562,5.259 L25.562,4.531 Z" id="Shape"></path>
                        <path d="M30.828,6.987 C30.159,6.987 29.665,6.705 29.345,6.152 L29.324,6.152 L29.264,6.88 L28.371,6.88 C28.399,6.502 28.409,6.074 28.409,5.609 L28.409,-1.77635684e-15 L29.459,-1.77635684e-15 L29.459,2.854 L29.479,2.854 C29.79,2.33 30.293,2.068 30.983,2.068 C32.119,2.068 32.915,3.039 32.915,4.455 C32.915,5.919 32.031,6.987 30.828,6.987 Z M30.615,2.891 C30.012,2.891 29.46,3.415 29.46,4.143 L29.46,4.968 C29.46,5.618 29.956,6.152 30.597,6.152 C31.382,6.152 31.85,5.512 31.85,4.493 C31.848,3.542 31.362,2.891 30.615,2.891 Z" id="Shape"></path>
                        <polygon id="Path" points="35.512 6.88 34.465 6.88 34.465 -1.77635684e-15 35.512 -1.77635684e-15"></polygon>
                        <path d="M41.217,4.774 L38.071,4.774 C38.092,5.667 38.682,6.171 39.555,6.171 C40.022,6.171 40.449,6.093 40.826,5.948 L40.989,6.676 C40.543,6.87 40.019,6.967 39.408,6.967 C37.932,6.967 37.059,6.035 37.059,4.59 C37.059,3.144 37.953,2.057 39.29,2.057 C40.492,2.057 41.251,2.95 41.251,4.299 C41.256,4.483 41.247,4.648 41.217,4.774 Z M40.256,4.027 C40.256,3.299 39.887,2.785 39.217,2.785 C38.614,2.785 38.141,3.309 38.071,4.027 L40.256,4.027 L40.256,4.027 Z" id="Shape"></path>
                        <path d="M47.569,6.987 C46.191,6.987 45.298,5.958 45.298,4.561 C45.298,3.105 46.21,2.067 47.649,2.067 C49.005,2.067 49.92,3.047 49.92,4.484 C49.919,5.958 48.977,6.987 47.569,6.987 Z M47.609,2.833 C46.852,2.833 46.367,3.541 46.367,4.531 C46.367,5.502 46.862,6.21 47.599,6.21 C48.336,6.21 48.8300015,5.453 48.8300015,4.511 C48.831,3.551 48.346,2.833 47.609,2.833 Z" id="Shape"></path>
                        <path d="M55.553,6.88 L54.506,6.88 L54.506,4.172 C54.506,3.338 54.186,2.92 53.555,2.92 C52.934,2.92 52.506,3.454 52.506,4.075 L52.506,6.88 L51.459,6.88 L51.459,3.512 C51.459,3.095 51.447,2.648 51.42,2.163 L52.342,2.163 L52.391,2.891 L52.42,2.891 C52.699,2.387 53.274,2.066 53.914,2.066 C54.902,2.066 55.553,2.823 55.553,4.055 L55.553,6.88 L55.553,6.88 Z" id="Path"></path>
                        <path d="M62.41,2.95 L61.257,2.95 L61.257,5.24 C61.257,5.823 61.46,6.114 61.867,6.114 C62.052,6.114 62.208,6.094 62.333,6.065 L62.362,6.861 C62.158,6.939 61.885,6.978 61.548,6.978 C60.722,6.978 60.23,6.522 60.23,5.328 L60.23,2.95 L59.542,2.95 L59.542,2.164 L60.23,2.164 L60.23,1.3 L61.257,0.989 L61.257,2.163 L62.41,2.163 L62.41,2.95 Z" id="Path"></path>
                        <path d="M67.96,6.88 L66.911,6.88 L66.911,4.192 C66.911,3.348 66.591,2.921 65.96,2.921 C65.417,2.921 64.913,3.29 64.913,4.037 L64.913,6.88 L63.864,6.88 L63.864,-1.77635684e-15 L64.913,-1.77635684e-15 L64.913,2.833 L64.934,2.833 C65.263,2.319 65.74,2.066 66.351,2.066 C67.35,2.066 67.96,2.842 67.96,4.075 L67.96,6.88 Z" id="Path"></path>
                        <path d="M73.315,4.774 L70.17,4.774 C70.19,5.667 70.779,6.171 71.653,6.171 C72.121,6.171 72.547,6.093 72.924,5.948 L73.088,6.676 C72.643,6.87 72.117,6.967 71.506,6.967 C70.03,6.967 69.157,6.035 69.157,4.59 C69.157,3.144 70.051,2.057 71.388,2.057 C72.591,2.057 73.349,2.95 73.349,4.299 C73.354,4.483 73.344,4.648 73.315,4.774 Z M72.354,4.027 C72.354,3.299 71.986,2.785 71.316,2.785 C70.713,2.785 70.239,3.309 70.17,4.027 L72.354,4.027 L72.354,4.027 Z" id="Shape"></path>
                    </g>
                </g>
            </g>
        </g>
    </g>
</svg>